<svg xmlns="http://www.w3.org/2000/svg" xmlns:svg="http://www.w3.org/2000/svg" id="svg4507" width="24" height="24" version="1.1" viewBox="0 0 24 24"><metadata id="metadata4511"/><defs id="defs4483"><linearGradient id="a" x1="7.729" x2="8.271" y1="2.719" y2="61" gradientTransform="matrix(0.5,0,0,-0.48276,384.57,547.25)" gradientUnits="userSpaceOnUse"><stop id="stop4468" stop-color="#bdc3c7"/><stop id="stop4470" offset="1" stop-color="#dadfe1"/></linearGradient><linearGradient id="b" x2="0" y1="518.04" y2="524.8" gradientUnits="userSpaceOnUse"><stop id="stop4473" stop-color="#566472"/><stop id="stop4475" offset="1" stop-color="#5e6b78"/></linearGradient><linearGradient id="c" x1="404.57" x2="411.57" y1="524.8" y2="531.8" gradientUnits="userSpaceOnUse"><stop id="stop4478" stop-color="#383e51"/><stop id="stop4480" offset="1" stop-color="#655c6f" stop-opacity="0"/></linearGradient></defs><path style="fill:#000;fill-opacity:1;fill-rule:evenodd;stroke:#000;stroke-width:1;stroke-linecap:round;stroke-linejoin:round;stroke-miterlimit:4;stroke-dasharray:none;stroke-opacity:1" id="path5074" d="m 5,14 h 3 v 4 h 3 L 6.5,22.5 2,18 h 3 z"/><path style="fill:#000;fill-opacity:1;fill-rule:evenodd;stroke:#000;stroke-width:0;stroke-linecap:butt;stroke-linejoin:miter;stroke-miterlimit:4;stroke-dasharray:none;stroke-opacity:1" id="path830" d="m 10.5,22.5 v -2 h 9 v -13 h -4 v -4 h -9 v 9 h -2 v -11 h 11 l 6,6 v 15 z"/><g aria-label="DXF" style="font-style:normal;font-variant:normal;font-weight:400;font-stretch:normal;font-size:12.5px;line-height:25px;font-family:Monospace;-inkscape-font-specification:Monospace;text-align:center;letter-spacing:0;word-spacing:0;text-anchor:middle;fill:#000;fill-opacity:1;stroke:none;stroke-width:1px;stroke-linecap:butt;stroke-linejoin:miter;stroke-opacity:1" id="text838"><path d="m 8.3906251,8.9746095 v 3.1282555 h 0.2604167 q 0.5664062,0 0.8072916,-0.354818 0.2408854,-0.358073 0.2408854,-1.214193 0,-0.8496091 -0.2408854,-1.2044268 Q 9.217448,8.9746095 8.6510418,8.9746095 Z M 7.4303387,8.1087241 h 1.0286458 q 1.1914062,0 1.7154945,0.5696614 0.524089,0.5664063 0.524089,1.8554685 0,1.292318 -0.524089,1.865235 Q 9.6503907,12.96875 8.4589845,12.96875 H 7.4303387 Z" style="font-style:normal;font-variant:normal;font-weight:700;font-stretch:normal;font-size:6.66666651px;font-family:Monospace;-inkscape-font-specification:'Monospace Bold'" id="path840"/><path d="M 14.920573,12.96875 H 13.927734 L 13,11.360677 12.075521,12.96875 h -0.992839 l 1.425781,-2.467448 -1.386718,-2.3925779 h 0.992838 L 13,9.654948 13.888672,8.1087241 h 0.992838 l -1.380208,2.3925779 z" style="font-style:normal;font-variant:normal;font-weight:700;font-stretch:normal;font-size:6.66666651px;font-family:Monospace;-inkscape-font-specification:'Monospace Bold'" id="path842"/><path d="m 18.625,8.9550782 h -2.067058 v 1.0481768 h 1.881511 v 0.846354 H 16.557942 V 12.96875 H 15.597656 V 8.1087241 H 18.625 Z" style="font-style:normal;font-variant:normal;font-weight:700;font-stretch:normal;font-size:6.66666651px;font-family:Monospace;-inkscape-font-specification:'Monospace Bold'" id="path844"/></g></svg>