<svg xmlns="http://www.w3.org/2000/svg" xmlns:svg="http://www.w3.org/2000/svg" id="svg8" width="24" height="24" version="1.1" viewBox="0 0 24 24"><metadata id="metadata5"/><g id="layer1" transform="translate(0,-290.65)"><path id="path836" d="M 12 297.65039 C 9.2444986 297.65039 7 299.89489 7 302.65039 C 7 305.40589 9.2444986 307.65039 12 307.65039 C 14.578259 307.65039 16.634976 305.66043 16.898438 303.15039 L 17 303.15039 L 17 302.65039 L 17 302.15039 L 16.898438 302.15039 C 16.634976 299.64035 14.578259 297.65039 12 297.65039 z M 12 298.65039 C 14.215061 298.65039 16 300.43533 16 302.65039 C 16 304.86545 14.215061 306.65039 12 306.65039 C 9.7849387 306.65039 8 304.86545 8 302.65039 C 8 300.43533 9.7849387 298.65039 12 298.65039 z" style="color:#000;font-style:normal;font-variant:normal;font-weight:400;font-stretch:normal;font-size:medium;line-height:normal;font-family:sans-serif;font-variant-ligatures:normal;font-variant-position:normal;font-variant-caps:normal;font-variant-numeric:normal;font-variant-alternates:normal;font-variant-east-asian:normal;font-feature-settings:normal;font-variation-settings:normal;text-indent:0;text-align:start;text-decoration:none;text-decoration-line:none;text-decoration-style:solid;text-decoration-color:#000;letter-spacing:normal;word-spacing:normal;text-transform:none;writing-mode:lr-tb;direction:ltr;text-orientation:mixed;dominant-baseline:auto;baseline-shift:baseline;text-anchor:start;white-space:normal;shape-padding:0;shape-margin:0;inline-size:0;clip-rule:nonzero;display:inline;overflow:visible;visibility:visible;isolation:auto;mix-blend-mode:normal;color-interpolation:sRGB;color-interpolation-filters:linearRGB;solid-color:#000;solid-opacity:1;vector-effect:none;fill:#000;fill-opacity:1;fill-rule:evenodd;stroke:none;stroke-width:1;stroke-linecap:square;stroke-linejoin:miter;stroke-miterlimit:4;stroke-dasharray:none;stroke-dashoffset:0;stroke-opacity:1;color-rendering:auto;image-rendering:auto;shape-rendering:auto;text-rendering:auto;enable-background:accumulate;stop-color:#000;stop-opacity:1;opacity:1"/><path style="color:#000;font-style:normal;font-variant:normal;font-weight:400;font-stretch:normal;font-size:medium;line-height:normal;font-family:sans-serif;font-variant-ligatures:normal;font-variant-position:normal;font-variant-caps:normal;font-variant-numeric:normal;font-variant-alternates:normal;font-feature-settings:normal;text-indent:0;text-align:start;text-decoration:none;text-decoration-line:none;text-decoration-style:solid;text-decoration-color:#000;letter-spacing:normal;word-spacing:normal;text-transform:none;writing-mode:lr-tb;direction:ltr;text-orientation:mixed;dominant-baseline:auto;baseline-shift:baseline;text-anchor:start;white-space:normal;shape-padding:0;clip-rule:nonzero;display:inline;overflow:visible;visibility:visible;opacity:1;isolation:auto;mix-blend-mode:normal;color-interpolation:sRGB;color-interpolation-filters:linearRGB;solid-color:#000;solid-opacity:1;vector-effect:none;fill:#000;fill-opacity:1;fill-rule:evenodd;stroke:none;stroke-width:.99999994;stroke-linecap:square;stroke-linejoin:miter;stroke-miterlimit:4;stroke-dasharray:none;stroke-dashoffset:0;stroke-opacity:1;color-rendering:auto;image-rendering:auto;shape-rendering:auto;text-rendering:auto;enable-background:accumulate" id="path819" d="m 12,292.65039 c -5.5169252,0 -10,4.48308 -10,10 0,5.51693 4.4830748,10 10,10 5.516925,0 10,-4.48307 10,-10 0,-5.51692 -4.483075,-10 -10,-10 z m 0,1 c 4.976485,0 9,4.02352 9,9 0,4.97649 -4.023515,9 -9,9 -4.9764851,0 -9,-4.02351 -9,-9 0,-4.97648 4.0235149,-9 9,-9 z"/></g></svg>